<svg width="160" height="160" viewBox="0 0 160 160" fill="none" xmlns="http://www.w3.org/2000/svg">
<path opacity="0.3" d="M39 110L48 133C48 133 96 132 95 131C94.4 130.4 92.2 123.7 90.4 118C68 123 54.1 110 54.1 110H39Z" fill="black"/>
<path opacity="0.5" d="M95 131V138.5V142.4L78 144L48 133" fill="black"/>
<path opacity="0.8" d="M95 130.9V142.398L121 140L95 130.9Z" fill="black"/>
<path d="M63.4981 131.9C62.6981 129.1 95.3981 119.4 96.1981 123.6C96.5981 126 61.7981 128.6 61.3981 126.2C60.9981 123.8 68.4981 121 78.0981 120L80.1981 119.8" stroke="black" stroke-miterlimit="10"/>
<path d="M63.4967 137.899C62.6967 135.799 95.5967 127.199 96.2967 130.499C96.5967 132.399 89.0967 133.899 79.4967 134.999C69.8967 136.099 61.8967 135.399 61.5967 133.599C61.4967 132.999 62.0967 132.399 63.2967 131.799" stroke="black" stroke-miterlimit="10"/>
<path opacity="0.7" d="M48 133V151.2C48.8 151.7 51.1 151.8 53.2 152H78V144L48 133Z" fill="black"/>
<path d="M121 140V147.2C116.616 150.312 111.376 151.989 106 152H78V144L121 140Z" fill="black"/>
<path opacity="0.1" d="M121 140V147.2C116.616 150.312 111.376 151.989 106 152H78V144L121 140Z" fill="white"/>
</svg>
