<svg xmlns="http://www.w3.org/2000/svg" fill="none" viewBox="0 0 160 160">
  <path fill="white" d="M124.598 80.7s20 .3 18.6-12.5c0 0 9.6 11.1 1 20.9-8.6 9.8-27.3 6.1-27.3 6.1l7.7-14.5Z"/>
  <path fill="black" d="M143.198 68.2c8.4 22.4-21.7 19.4-21.7 19.4l-4.6 7.5s18.7 3.6 27.3-6.1c8.6-9.7-1-20.8-1-20.8Z" opacity=".1"/>
  <path fill="black" d="M118.501 75s7.1 1 7.3 11.2c.2 10.2-11 11.8-11 11.8a39.61 39.61 0 0 0 3.7-23ZM38.2 78.1l9.6-4s8.6.9 9.5 11.4c.9 10.5-5.5 12.9-5.5 12.9l-10.3.2s-4.5-3.1-5.2-11.3c-.7-8.2 1.9-9.2 1.9-9.2Z"/>
  <path fill="white" d="m38.198 78.1 9.6-4c5 1.5 9 4.3 9.5 11.4-.8-1.6-2.3-2.3-4.5-2.2l-4.8 1.1-5.7 1.4-5.9 1.4c.4-5-.1-7.3 1.8-9.1Z" opacity=".1"/>
  <path fill="white" d="M42.728 97.27c2.697-.217 4.557-4.454 4.154-9.463-.403-5.01-2.917-8.895-5.614-8.678-2.697.217-4.557 4.454-4.154 9.463.403 5.01 2.916 8.895 5.614 8.678Z" opacity=".16"/>
  <path fill="white" d="M41.699 80.6s-15.6 2.1-20-2.9-.2-13.9-.2-13.9-11.1 6.4-10 19c1.1 12.6 25 13.8 30.3 12.4 0 0 3.6-1.8 3.3-7.5 0-5.8-3.4-7.1-3.4-7.1Z"/>
  <path fill="black" d="M44.998 87.7c-15.9 3.8-39.8-2.6-23.5-23.8 0 0-11.1 6.4-10 19 1.1 12.6 25 13.8 30.3 12.4 0 0 3.6-1.8 3.2-7.6Z" opacity=".3"/>
</svg>
